M48
; DRILL file {KiCad (5.1.10)-1} date 09/16/21 11:51:44
; FORMAT={-:-/ absolute / inch / decimal}
; #@! TF.CreationDate,2021-09-16T11:51:44-07:00
; #@! TF.GenerationSoftware,Kicad,Pcbnew,(5.1.10)-1
FMAT,2
INCH
T1C0.0591
T2C0.1024
T3C0.1181
T4C0.1260
T5C0.2402
T6C0.2795
%
G90
G05
T2
X0.1002Y1.285
X0.6006Y1.285
T3
X1.2598Y1.2205
T5
X0.2362Y0.8268
X0.2362Y0.2756
X0.748Y0.8268
X0.748Y0.2756
X1.2598Y0.8268
X1.2598Y0.2756
T6
X0.748Y3.9764
X0.748Y2.9134
X0.748Y1.8504
T1
G00X0.7776Y3.6693
M15
G01X0.7185Y3.6693
M16
G05
G00X0.7776Y2.6063
M15
G01X0.7185Y2.6063
M16
G05
G00X0.7776Y1.5433
M15
G01X0.7185Y1.5433
M16
G05
T4
G00X0.2146Y4.5768
M15
G01X0.2854Y4.5768
M16
G05
G00X0.2146Y-0.2461
M15
G01X0.2854Y-0.2461
M16
G05
T0
M30
