G04 #@! TF.GenerationSoftware,KiCad,Pcbnew,(5.1.10)-1*
G04 #@! TF.CreationDate,2021-09-16T11:51:43-07:00*
G04 #@! TF.ProjectId,vco_panel,76636f5f-7061-46e6-956c-2e6b69636164,rev?*
G04 #@! TF.SameCoordinates,Original*
G04 #@! TF.FileFunction,Legend,Top*
G04 #@! TF.FilePolarity,Positive*
%FSLAX46Y46*%
G04 Gerber Fmt 4.6, Leading zero omitted, Abs format (unit mm)*
G04 Created by KiCad (PCBNEW (5.1.10)-1) date 2021-09-16 11:51:43*
%MOMM*%
%LPD*%
G01*
G04 APERTURE LIST*
%ADD10C,0.500000*%
%ADD11C,0.375000*%
%ADD12C,0.300000*%
G04 APERTURE END LIST*
D10*
X15428571Y63595238D02*
X16571428Y63595238D01*
X16000000Y61595238D02*
X16000000Y63595238D01*
X17238095Y63595238D02*
X17238095Y61976190D01*
X17333333Y61785714D01*
X17428571Y61690476D01*
X17619047Y61595238D01*
X18000000Y61595238D01*
X18190476Y61690476D01*
X18285714Y61785714D01*
X18380952Y61976190D01*
X18380952Y63595238D01*
X19333333Y61595238D02*
X19333333Y63595238D01*
X20476190Y61595238D01*
X20476190Y63595238D01*
X21428571Y62642857D02*
X22095238Y62642857D01*
X22380952Y61595238D02*
X21428571Y61595238D01*
X21428571Y63595238D01*
X22380952Y63595238D01*
X17333333Y34595238D02*
X17333333Y36595238D01*
X18095238Y36595238D01*
X18285714Y36500000D01*
X18380952Y36404761D01*
X18476190Y36214285D01*
X18476190Y35928571D01*
X18380952Y35738095D01*
X18285714Y35642857D01*
X18095238Y35547619D01*
X17333333Y35547619D01*
X19142857Y36595238D02*
X19619047Y34595238D01*
X20000000Y36023809D01*
X20380952Y34595238D01*
X20857142Y36595238D01*
D11*
X3392857Y642857D02*
X3607142Y571428D01*
X3964285Y571428D01*
X4107142Y642857D01*
X4178571Y714285D01*
X4250000Y857142D01*
X4250000Y1000000D01*
X4178571Y1142857D01*
X4107142Y1214285D01*
X3964285Y1285714D01*
X3678571Y1357142D01*
X3535714Y1428571D01*
X3464285Y1500000D01*
X3392857Y1642857D01*
X3392857Y1785714D01*
X3464285Y1928571D01*
X3535714Y2000000D01*
X3678571Y2071428D01*
X4035714Y2071428D01*
X4250000Y2000000D01*
X5178571Y1285714D02*
X5178571Y571428D01*
X4678571Y2071428D02*
X5178571Y1285714D01*
X5678571Y2071428D01*
X6178571Y571428D02*
X6178571Y2071428D01*
X7035714Y571428D01*
X7035714Y2071428D01*
X8607142Y714285D02*
X8535714Y642857D01*
X8321428Y571428D01*
X8178571Y571428D01*
X7964285Y642857D01*
X7821428Y785714D01*
X7750000Y928571D01*
X7678571Y1214285D01*
X7678571Y1428571D01*
X7750000Y1714285D01*
X7821428Y1857142D01*
X7964285Y2000000D01*
X8178571Y2071428D01*
X8321428Y2071428D01*
X8535714Y2000000D01*
X8607142Y1928571D01*
X17464285Y2071428D02*
X18321428Y2071428D01*
X17892857Y571428D02*
X17892857Y2071428D01*
X19678571Y571428D02*
X19178571Y1285714D01*
X18821428Y571428D02*
X18821428Y2071428D01*
X19392857Y2071428D01*
X19535714Y2000000D01*
X19607142Y1928571D01*
X19678571Y1785714D01*
X19678571Y1571428D01*
X19607142Y1428571D01*
X19535714Y1357142D01*
X19392857Y1285714D01*
X18821428Y1285714D01*
X20321428Y571428D02*
X20321428Y2071428D01*
X30035714Y642857D02*
X30250000Y571428D01*
X30607142Y571428D01*
X30750000Y642857D01*
X30821428Y714285D01*
X30892857Y857142D01*
X30892857Y1000000D01*
X30821428Y1142857D01*
X30750000Y1214285D01*
X30607142Y1285714D01*
X30321428Y1357142D01*
X30178571Y1428571D01*
X30107142Y1500000D01*
X30035714Y1642857D01*
X30035714Y1785714D01*
X30107142Y1928571D01*
X30178571Y2000000D01*
X30321428Y2071428D01*
X30678571Y2071428D01*
X30892857Y2000000D01*
X32535714Y428571D02*
X32392857Y500000D01*
X32250000Y642857D01*
X32035714Y857142D01*
X31892857Y928571D01*
X31750000Y928571D01*
X31821428Y571428D02*
X31678571Y642857D01*
X31535714Y785714D01*
X31464285Y1071428D01*
X31464285Y1571428D01*
X31535714Y1857142D01*
X31678571Y2000000D01*
X31821428Y2071428D01*
X32107142Y2071428D01*
X32250000Y2000000D01*
X32392857Y1857142D01*
X32464285Y1571428D01*
X32464285Y1071428D01*
X32392857Y785714D01*
X32250000Y642857D01*
X32107142Y571428D01*
X31821428Y571428D01*
X33964285Y571428D02*
X33464285Y1285714D01*
X33107142Y571428D02*
X33107142Y2071428D01*
X33678571Y2071428D01*
X33821428Y2000000D01*
X33892857Y1928571D01*
X33964285Y1785714D01*
X33964285Y1571428D01*
X33892857Y1428571D01*
X33821428Y1357142D01*
X33678571Y1285714D01*
X33107142Y1285714D01*
X29892857Y14571428D02*
X29892857Y16071428D01*
X30464285Y16071428D01*
X30607142Y16000000D01*
X30678571Y15928571D01*
X30750000Y15785714D01*
X30750000Y15571428D01*
X30678571Y15428571D01*
X30607142Y15357142D01*
X30464285Y15285714D01*
X29892857Y15285714D01*
X31250000Y16071428D02*
X31607142Y14571428D01*
X31892857Y15642857D01*
X32178571Y14571428D01*
X32535714Y16071428D01*
X33107142Y14571428D02*
X33107142Y16071428D01*
X33607142Y15000000D01*
X34107142Y16071428D01*
X34107142Y14571428D01*
X16250000Y14571428D02*
X15535714Y14571428D01*
X15535714Y16071428D01*
X16750000Y14571428D02*
X16750000Y16071428D01*
X17464285Y14571428D02*
X17464285Y16071428D01*
X18321428Y14571428D01*
X18321428Y16071428D01*
X20678571Y15357142D02*
X20178571Y15357142D01*
X20178571Y14571428D02*
X20178571Y16071428D01*
X20892857Y16071428D01*
X21464285Y14571428D02*
X21464285Y16071428D01*
X21964285Y15000000D01*
X22464285Y16071428D01*
X22464285Y14571428D01*
D12*
X5785714Y14571428D02*
X4928571Y14571428D01*
X5357142Y14571428D02*
X5357142Y16071428D01*
X5214285Y15857142D01*
X5071428Y15714285D01*
X4928571Y15642857D01*
X6214285Y16071428D02*
X6714285Y14571428D01*
X7214285Y16071428D01*
D10*
X16333333Y89642857D02*
X15666666Y89642857D01*
X15666666Y88595238D02*
X15666666Y90595238D01*
X16619047Y90595238D01*
X18523809Y88595238D02*
X17857142Y89547619D01*
X17380952Y88595238D02*
X17380952Y90595238D01*
X18142857Y90595238D01*
X18333333Y90500000D01*
X18428571Y90404761D01*
X18523809Y90214285D01*
X18523809Y89928571D01*
X18428571Y89738095D01*
X18333333Y89642857D01*
X18142857Y89547619D01*
X17380952Y89547619D01*
X19380952Y89642857D02*
X20047619Y89642857D01*
X20333333Y88595238D02*
X19380952Y88595238D01*
X19380952Y90595238D01*
X20333333Y90595238D01*
X22523809Y88404761D02*
X22333333Y88500000D01*
X22142857Y88690476D01*
X21857142Y88976190D01*
X21666666Y89071428D01*
X21476190Y89071428D01*
X21571428Y88595238D02*
X21380952Y88690476D01*
X21190476Y88880952D01*
X21095238Y89261904D01*
X21095238Y89928571D01*
X21190476Y90309523D01*
X21380952Y90500000D01*
X21571428Y90595238D01*
X21952380Y90595238D01*
X22142857Y90500000D01*
X22333333Y90309523D01*
X22428571Y89928571D01*
X22428571Y89261904D01*
X22333333Y88880952D01*
X22142857Y88690476D01*
X21952380Y88595238D01*
X21571428Y88595238D01*
M02*
