G04 #@! TF.GenerationSoftware,KiCad,Pcbnew,(5.1.10)-1*
G04 #@! TF.CreationDate,2021-09-16T11:40:55-07:00*
G04 #@! TF.ProjectId,wavefolder_panel,77617665-666f-46c6-9465-725f70616e65,rev?*
G04 #@! TF.SameCoordinates,Original*
G04 #@! TF.FileFunction,Legend,Top*
G04 #@! TF.FilePolarity,Positive*
%FSLAX46Y46*%
G04 Gerber Fmt 4.6, Leading zero omitted, Abs format (unit mm)*
G04 Created by KiCad (PCBNEW (5.1.10)-1) date 2021-09-16 11:40:55*
%MOMM*%
%LPD*%
G01*
G04 APERTURE LIST*
%ADD10C,0.300000*%
%ADD11C,0.500000*%
G04 APERTURE END LIST*
D10*
X6857142Y14071428D02*
X6800000Y14014285D01*
X6628571Y13957142D01*
X6514285Y13957142D01*
X6342857Y14014285D01*
X6228571Y14128571D01*
X6171428Y14242857D01*
X6114285Y14471428D01*
X6114285Y14642857D01*
X6171428Y14871428D01*
X6228571Y14985714D01*
X6342857Y15100000D01*
X6514285Y15157142D01*
X6628571Y15157142D01*
X6800000Y15100000D01*
X6857142Y15042857D01*
X7200000Y15157142D02*
X7600000Y13957142D01*
X8000000Y15157142D01*
X18457142Y13957142D02*
X18457142Y15157142D01*
X18914285Y15157142D01*
X19028571Y15100000D01*
X19085714Y15042857D01*
X19142857Y14928571D01*
X19142857Y14757142D01*
X19085714Y14642857D01*
X19028571Y14585714D01*
X18914285Y14528571D01*
X18457142Y14528571D01*
X19657142Y15157142D02*
X19657142Y14185714D01*
X19714285Y14071428D01*
X19771428Y14014285D01*
X19885714Y13957142D01*
X20114285Y13957142D01*
X20228571Y14014285D01*
X20285714Y14071428D01*
X20342857Y14185714D01*
X20342857Y15157142D01*
X21485714Y13957142D02*
X20914285Y13957142D01*
X20914285Y15157142D01*
X21828571Y14014285D02*
X22000000Y13957142D01*
X22285714Y13957142D01*
X22400000Y14014285D01*
X22457142Y14071428D01*
X22514285Y14185714D01*
X22514285Y14300000D01*
X22457142Y14414285D01*
X22400000Y14471428D01*
X22285714Y14528571D01*
X22057142Y14585714D01*
X21942857Y14642857D01*
X21885714Y14700000D01*
X21828571Y14814285D01*
X21828571Y14928571D01*
X21885714Y15042857D01*
X21942857Y15100000D01*
X22057142Y15157142D01*
X22342857Y15157142D01*
X22514285Y15100000D01*
X23028571Y14585714D02*
X23428571Y14585714D01*
X23600000Y13957142D02*
X23028571Y13957142D01*
X23028571Y15157142D01*
X23600000Y15157142D01*
X18114285Y1657142D02*
X18342857Y1657142D01*
X18457142Y1600000D01*
X18571428Y1485714D01*
X18628571Y1257142D01*
X18628571Y857142D01*
X18571428Y628571D01*
X18457142Y514285D01*
X18342857Y457142D01*
X18114285Y457142D01*
X18000000Y514285D01*
X17885714Y628571D01*
X17828571Y857142D01*
X17828571Y1257142D01*
X17885714Y1485714D01*
X18000000Y1600000D01*
X18114285Y1657142D01*
X19142857Y1657142D02*
X19142857Y685714D01*
X19200000Y571428D01*
X19257142Y514285D01*
X19371428Y457142D01*
X19600000Y457142D01*
X19714285Y514285D01*
X19771428Y571428D01*
X19828571Y685714D01*
X19828571Y1657142D01*
X20228571Y1657142D02*
X20914285Y1657142D01*
X20571428Y457142D02*
X20571428Y1657142D01*
X21314285Y457142D02*
X21314285Y1657142D01*
X21771428Y1657142D01*
X21885714Y1600000D01*
X21942857Y1542857D01*
X22000000Y1428571D01*
X22000000Y1257142D01*
X21942857Y1142857D01*
X21885714Y1085714D01*
X21771428Y1028571D01*
X21314285Y1028571D01*
X22514285Y1657142D02*
X22514285Y685714D01*
X22571428Y571428D01*
X22628571Y514285D01*
X22742857Y457142D01*
X22971428Y457142D01*
X23085714Y514285D01*
X23142857Y571428D01*
X23200000Y685714D01*
X23200000Y1657142D01*
X23600000Y1657142D02*
X24285714Y1657142D01*
X23942857Y457142D02*
X23942857Y1657142D01*
X4685714Y457142D02*
X4685714Y1657142D01*
X5257142Y457142D02*
X5257142Y1657142D01*
X5942857Y457142D01*
X5942857Y1657142D01*
X6514285Y457142D02*
X6514285Y1657142D01*
X6971428Y1657142D01*
X7085714Y1600000D01*
X7142857Y1542857D01*
X7200000Y1428571D01*
X7200000Y1257142D01*
X7142857Y1142857D01*
X7085714Y1085714D01*
X6971428Y1028571D01*
X6514285Y1028571D01*
X7714285Y1657142D02*
X7714285Y685714D01*
X7771428Y571428D01*
X7828571Y514285D01*
X7942857Y457142D01*
X8171428Y457142D01*
X8285714Y514285D01*
X8342857Y571428D01*
X8400000Y685714D01*
X8400000Y1657142D01*
X8800000Y1657142D02*
X9485714Y1657142D01*
X9142857Y457142D02*
X9142857Y1657142D01*
D11*
X8809523Y46642857D02*
X8142857Y46642857D01*
X8142857Y45595238D02*
X8142857Y47595238D01*
X9095238Y47595238D01*
X10238095Y47595238D02*
X10619047Y47595238D01*
X10809523Y47500000D01*
X11000000Y47309523D01*
X11095238Y46928571D01*
X11095238Y46261904D01*
X11000000Y45880952D01*
X10809523Y45690476D01*
X10619047Y45595238D01*
X10238095Y45595238D01*
X10047619Y45690476D01*
X9857142Y45880952D01*
X9761904Y46261904D01*
X9761904Y46928571D01*
X9857142Y47309523D01*
X10047619Y47500000D01*
X10238095Y47595238D01*
X12904761Y45595238D02*
X11952380Y45595238D01*
X11952380Y47595238D01*
X13571428Y45595238D02*
X13571428Y47595238D01*
X14047619Y47595238D01*
X14333333Y47500000D01*
X14523809Y47309523D01*
X14619047Y47119047D01*
X14714285Y46738095D01*
X14714285Y46452380D01*
X14619047Y46071428D01*
X14523809Y45880952D01*
X14333333Y45690476D01*
X14047619Y45595238D01*
X13571428Y45595238D01*
X18238095Y45785714D02*
X18142857Y45690476D01*
X17857142Y45595238D01*
X17666666Y45595238D01*
X17380952Y45690476D01*
X17190476Y45880952D01*
X17095238Y46071428D01*
X17000000Y46452380D01*
X17000000Y46738095D01*
X17095238Y47119047D01*
X17190476Y47309523D01*
X17380952Y47500000D01*
X17666666Y47595238D01*
X17857142Y47595238D01*
X18142857Y47500000D01*
X18238095Y47404761D01*
X18809523Y47595238D02*
X19476190Y45595238D01*
X20142857Y47595238D01*
X11428571Y82642857D02*
X10761904Y82642857D01*
X10761904Y81595238D02*
X10761904Y83595238D01*
X11714285Y83595238D01*
X12857142Y83595238D02*
X13238095Y83595238D01*
X13428571Y83500000D01*
X13619047Y83309523D01*
X13714285Y82928571D01*
X13714285Y82261904D01*
X13619047Y81880952D01*
X13428571Y81690476D01*
X13238095Y81595238D01*
X12857142Y81595238D01*
X12666666Y81690476D01*
X12476190Y81880952D01*
X12380952Y82261904D01*
X12380952Y82928571D01*
X12476190Y83309523D01*
X12666666Y83500000D01*
X12857142Y83595238D01*
X15523809Y81595238D02*
X14571428Y81595238D01*
X14571428Y83595238D01*
X16190476Y81595238D02*
X16190476Y83595238D01*
X16666666Y83595238D01*
X16952380Y83500000D01*
X17142857Y83309523D01*
X17238095Y83119047D01*
X17333333Y82738095D01*
X17333333Y82452380D01*
X17238095Y82071428D01*
X17142857Y81880952D01*
X16952380Y81690476D01*
X16666666Y81595238D01*
X16190476Y81595238D01*
M02*
